<svg xmlns="http://www.w3.org/2000/svg" width="100" height="100" viewBox="0 0 32 32"><g fill="none"><g filter="url(#svgIDa)"><rect width="27.906" height="27.906" x="2.047" y="2.055" fill="url(#svgIDb)" rx="3.8"/></g><rect width="27.906" height="27.906" x="2.047" y="2.055" fill="url(#svgIDc)" rx="3.8"/><rect width="27.906" height="27.906" x="2.047" y="2.055" fill="url(#svgIDd)" rx="3.8"/><rect width="27.906" height="27.906" x="2.047" y="2.055" fill="url(#svgIDe)" rx="3.8"/><g filter="url(#svgIDf)"><path fill="url(#svgIDg)" d="M27.26 28.78a3.91 3.91 0 0 1-1.771.418h-3.984V8.134c0-.603.525-1.091 1.172-1.091h3.411c.647 0 1.171.488 1.171 1.09V28.78Z"/></g><path fill="url(#svgIDh)" fill-rule="evenodd" d="M11.523 2.055h-1v8.39H2.047v1h8.476v8.97H2.047v1h8.476v8.546h1v-8.547h9v8.547h1v-8.547h8.43v-1h-8.43v-8.969h8.43v-1h-8.43v-8.39h-1v8.39h-9v-8.39Zm9 9.39v8.97h-9v-8.97h9Z" clip-rule="evenodd"/><path fill="url(#svgIDi)" fill-rule="evenodd" d="M11.523 2.055h-1v8.39H2.047v1h8.476v8.97H2.047v1h8.476v8.546h1v-8.547h9v8.547h1v-8.547h8.43v-1h-8.43v-8.969h8.43v-1h-8.43v-8.39h-1v8.39h-9v-8.39Zm9 9.39v8.97h-9v-8.97h9Z" clip-rule="evenodd"/><path fill="url(#svgIDj)" fill-rule="evenodd" d="M11.523 2.055h-1v8.39H2.047v1h8.476v8.97H2.047v1h8.476v8.546h1v-8.547h9v8.547h1v-8.547h8.43v-1h-8.43v-8.969h8.43v-1h-8.43v-8.39h-1v8.39h-9v-8.39Zm9 9.39v8.97h-9v-8.97h9Z" clip-rule="evenodd"/><path fill="url(#svgIDk)" fill-rule="evenodd" d="M11.523 2.055h-1v8.39H2.047v1h8.476v8.97H2.047v1h8.476v8.546h1v-8.547h9v8.547h1v-8.547h8.43v-1h-8.43v-8.969h8.43v-1h-8.43v-8.39h-1v8.39h-9v-8.39Zm9 9.39v8.97h-9v-8.97h9Z" clip-rule="evenodd"/><path fill="url(#svgIDl)" fill-rule="evenodd" d="M11.523 2.055h-1v8.39H2.047v1h8.476v8.97H2.047v1h8.476v8.546h1v-8.547h9v8.547h1v-8.547h1.972v-1h-1.972v-8.969h1.972v-1h-1.972v-8.39h-1v8.39h-9v-8.39Zm9 9.39v8.97h-9v-8.97h9Z" clip-rule="evenodd"/><path fill="url(#svgIDm)" fill-rule="evenodd" d="M11.523 2.055h-1v8.39H2.047v1h8.476v8.97H2.047v1h8.476v8.546h1v-8.547h9v8.547h1v-8.547h1.972v-1h-1.972v-8.969h1.972v-1h-1.972v-8.39h-1v8.39h-9v-8.39Zm9 9.39v8.97h-9v-8.97h9Z" clip-rule="evenodd"/><path fill="url(#svgIDn)" fill-rule="evenodd" d="M11.523 2.055h-1v8.39H2.047v1h8.476v8.97H2.047v1h8.476v8.546h1v-8.547h9v8.547h1v-8.547h1.972v-1h-1.972v-8.969h1.972v-1h-1.972v-8.39h-1v8.39h-9v-8.39Zm9 9.39v8.97h-9v-8.97h9Z" clip-rule="evenodd"/><g filter="url(#svgIDo)"><path fill="url(#svgIDp)" d="M18.24 29.387a6.45 6.45 0 0 1-1.772.238h-3.983V17.656c0-.342.524-.62 1.171-.62h3.412c.647 0 1.171.278 1.171.62v11.731Z"/></g><g filter="url(#svgIDq)"><path fill="url(#svgIDr)" d="M9.11 28.437a4.374 4.374 0 0 1-1.77.366H3.357V10.382c0-.527.524-.954 1.171-.954H7.94c.647 0 1.172.427 1.172.954v18.055Z"/></g><g filter="url(#svgIDs)"><path fill="url(#svgIDt)" d="M27.967 29.5a3.777 3.777 0 0 1-1.814.461h-4.08V6.794a1.2 1.2 0 0 1 1.2-1.2h3.494a1.2 1.2 0 0 1 1.2 1.2V29.5Z"/></g><path fill="url(#svgIDu)" d="M27.967 29.5a3.777 3.777 0 0 1-1.814.461h-4.08V6.794a1.2 1.2 0 0 1 1.2-1.2h3.494a1.2 1.2 0 0 1 1.2 1.2V29.5Z"/><g filter="url(#svgIDv)"><rect width=".865" height="22.501" x="26.394" y="6.527" fill="url(#svgIDw)" rx=".433"/></g><path fill="url(#svgIDx)" d="M13.459 10.445h-1.936v-8.39h-1v8.39H2.047v1h8.476v8.97H2.047v1h8.476v8.546h1v-8.547h1.936v-1h-1.936v-8.969h1.936v-1Z"/><path fill="url(#svgIDy)" d="M13.459 10.445h-1.936v-8.39h-1v8.39H2.047v1h8.476v8.97H2.047v1h8.476v8.546h1v-8.547h1.936v-1h-1.936v-8.969h1.936v-1Z"/><g filter="url(#svgIDz)"><path fill="url(#svgIDA)" d="M18.947 29.961h-5.894V17.847a1.2 1.2 0 0 1 1.2-1.2h3.494a1.2 1.2 0 0 1 1.2 1.2V29.96Z"/></g><g filter="url(#svgIDB)"><rect width=".865" height="11.643" x="17.374" y="17.555" fill="url(#svgIDC)" rx=".433"/></g><g filter="url(#svgIDD)"><path fill="url(#svgIDE)" d="M9.927 29.96h-4.08a3.782 3.782 0 0 1-1.814-.46V9.866a1.2 1.2 0 0 1 1.2-1.2h3.494a1.2 1.2 0 0 1 1.2 1.2v20.096Z"/></g><g filter="url(#svgIDF)"><rect width=".865" height="19.77" x="8.678" y="9.428" fill="url(#svgIDG)" rx=".433"/></g><defs><linearGradient id="svgIDb" x1="27.125" x2="11.875" y1="3.883" y2="23.32" gradientUnits="userSpaceOnUse"><stop stop-color="#D8D1E0"/><stop offset="1" stop-color="#D5C9E3"/></linearGradient><linearGradient id="svgIDc" x1="21.475" x2="21.475" y1="30.224" y2="27.926" gradientUnits="userSpaceOnUse"><stop stop-color="#A88AC4"/><stop offset="1" stop-color="#CDBCE0" stop-opacity="0"/></linearGradient><linearGradient id="svgIDg" x1="24.382" x2="24.382" y1="7.043" y2="29.198" gradientUnits="userSpaceOnUse"><stop stop-color="#9B98B3"/><stop offset="1" stop-color="#9C83AE"/></linearGradient><linearGradient id="svgIDh" x1="16" x2="16" y1="4.367" y2="29.961" gradientUnits="userSpaceOnUse"><stop stop-color="#C2BEC6"/><stop offset="1" stop-color="#BAACC6"/></linearGradient><linearGradient id="svgIDi" x1="21.719" x2="21.719" y1="30.676" y2="27.195" gradientUnits="userSpaceOnUse"><stop stop-color="#9E83B7"/><stop offset="1" stop-color="#9E83B7" stop-opacity="0"/></linearGradient><linearGradient id="svgIDj" x1="1.078" x2="6.391" y1="17.367" y2="17.367" gradientUnits="userSpaceOnUse"><stop stop-color="#96909C"/><stop offset="1" stop-color="#96909C" stop-opacity="0"/></linearGradient><linearGradient id="svgIDk" x1="30.766" x2="26.953" y1="18.055" y2="18.055" gradientUnits="userSpaceOnUse"><stop stop-color="#D6D1DA"/><stop offset="1" stop-color="#D6D1DA" stop-opacity="0"/></linearGradient><linearGradient id="svgIDl" x1="24.187" x2="20.164" y1="18.334" y2="18.334" gradientUnits="userSpaceOnUse"><stop offset=".452" stop-color="#7C7695"/><stop offset="1" stop-color="#7C7695" stop-opacity="0"/></linearGradient><linearGradient id="svgIDm" x1="21.029" x2="21.029" y1="30.534" y2="28.371" gradientUnits="userSpaceOnUse"><stop stop-color="#9070AD"/><stop offset="1" stop-color="#9070AD" stop-opacity="0"/></linearGradient><linearGradient id="svgIDn" x1="19.645" x2="19.645" y1="1.549" y2="10.158" gradientUnits="userSpaceOnUse"><stop offset=".668" stop-color="#C3BFC7"/><stop offset="1" stop-color="#C3BFC7" stop-opacity="0"/></linearGradient><linearGradient id="svgIDp" x1="15.362" x2="15.362" y1="17.036" y2="29.625" gradientUnits="userSpaceOnUse"><stop stop-color="#9B98B3"/><stop offset="1" stop-color="#9C83AE"/></linearGradient><linearGradient id="svgIDr" x1="6.234" x2="6.234" y1="9.428" y2="28.803" gradientUnits="userSpaceOnUse"><stop stop-color="#9B98B3"/><stop offset="1" stop-color="#9C83AE"/></linearGradient><linearGradient id="svgIDt" x1="25.02" x2="25.02" y1="5.594" y2="29.961" gradientUnits="userSpaceOnUse"><stop offset=".18" stop-color="#36A4F2"/><stop offset="1" stop-color="#3E79CB"/></linearGradient><linearGradient id="svgIDu" x1="21.722" x2="23.538" y1="29.452" y2="29.366" gradientUnits="userSpaceOnUse"><stop offset=".011" stop-color="#404E95"/><stop offset="1" stop-color="#2F66B3" stop-opacity="0"/></linearGradient><linearGradient id="svgIDw" x1="26.827" x2="26.827" y1="6.527" y2="29.028" gradientUnits="userSpaceOnUse"><stop stop-color="#53BFFF"/><stop offset="1" stop-color="#508EDC"/></linearGradient><linearGradient id="svgIDy" x1="1.519" x2="5.975" y1="17.469" y2="17.469" gradientUnits="userSpaceOnUse"><stop stop-color="#88858D"/><stop offset="1" stop-color="#88858D" stop-opacity="0"/></linearGradient><linearGradient id="svgIDA" x1="16" x2="16" y1="16.647" y2="29.961" gradientUnits="userSpaceOnUse"><stop offset=".18" stop-color="#E93586"/><stop offset="1" stop-color="#DD385F"/></linearGradient><linearGradient id="svgIDC" x1="17.806" x2="17.806" y1="17.555" y2="29.198" gradientUnits="userSpaceOnUse"><stop stop-color="#FA5598"/><stop offset="1" stop-color="#F34F70"/></linearGradient><linearGradient id="svgIDE" x1="6.98" x2="6.98" y1="8.665" y2="29.961" gradientUnits="userSpaceOnUse"><stop offset=".18" stop-color="#ABE263"/><stop offset="1" stop-color="#61E19B"/></linearGradient><linearGradient id="svgIDG" x1="9.111" x2="9.111" y1="9.428" y2="29.198" gradientUnits="userSpaceOnUse"><stop stop-color="#C9FE70"/><stop offset="1" stop-color="#6CEDA7"/></linearGradient><filter id="svgIDa" width="30.406" height="29.906" x="1.047" y="1.055" filterUnits="userSpaceOnUse"><feFlood flood-opacity="0" result="BackgroundImageFix"/><feBlend in="SourceGraphic" in2="BackgroundImageFix" result="shape"/><feColorMatrix in="SourceAlpha" result="hardAlpha" values="0 0 0 0 0 0 0 0 0 0 0 0 0 0 0 0 0 0 127 0"/><feOffset dx="-1" dy="1"/><feGaussianBlur stdDeviation="1"/><feComposite in2="hardAlpha" k2="-1" k3="1" operator="arithmetic"/><feColorMatrix values="0 0 0 0 0.878431 0 0 0 0 0.87451 0 0 0 0 0.886275 0 0 0 1 0"/><feBlend in2="shape" result="effect1_innerShadow_18_23005"/><feColorMatrix in="SourceAlpha" result="hardAlpha" values="0 0 0 0 0 0 0 0 0 0 0 0 0 0 0 0 0 0 127 0"/><feOffset dx="1.5" dy="-1"/><feGaussianBlur stdDeviation="1.5"/><feComposite in2="hardAlpha" k2="-1" k3="1" operator="arithmetic"/><feColorMatrix values="0 0 0 0 0.698039 0 0 0 0 0.67451 0 0 0 0 0.721569 0 0 0 1 0"/><feBlend in2="effect1_innerShadow_18_23005" result="effect2_innerShadow_18_23005"/><feColorMatrix in="SourceAlpha" result="hardAlpha" values="0 0 0 0 0 0 0 0 0 0 0 0 0 0 0 0 0 0 127 0"/><feOffset dx=".25"/><feGaussianBlur stdDeviation=".25"/><feComposite in2="hardAlpha" k2="-1" k3="1" operator="arithmetic"/><feColorMatrix values="0 0 0 0 0.729412 0 0 0 0 0.729412 0 0 0 0 0.729412 0 0 0 1 0"/><feBlend in2="effect2_innerShadow_18_23005" result="effect3_innerShadow_18_23005"/></filter><filter id="svgIDf" width="7.754" height="24.155" x="20.505" y="6.043" filterUnits="userSpaceOnUse"><feFlood flood-opacity="0" result="BackgroundImageFix"/><feBlend in="SourceGraphic" in2="BackgroundImageFix" result="shape"/><feGaussianBlur result="effect1_foregroundBlur_18_23005" stdDeviation=".5"/></filter><filter id="svgIDo" width="7.754" height="14.589" x="11.485" y="16.036" filterUnits="userSpaceOnUse"><feFlood flood-opacity="0" result="BackgroundImageFix"/><feBlend in="SourceGraphic" in2="BackgroundImageFix" result="shape"/><feGaussianBlur result="effect1_foregroundBlur_18_23005" stdDeviation=".5"/></filter><filter id="svgIDq" width="7.754" height="21.375" x="2.357" y="8.428" filterUnits="userSpaceOnUse"><feFlood flood-opacity="0" result="BackgroundImageFix"/><feBlend in="SourceGraphic" in2="BackgroundImageFix" result="shape"/><feGaussianBlur result="effect1_foregroundBlur_18_23005" stdDeviation=".5"/></filter><filter id="svgIDs" width="6.644" height="24.367" x="22.073" y="5.594" filterUnits="userSpaceOnUse"><feFlood flood-opacity="0" result="BackgroundImageFix"/><feBlend in="SourceGraphic" in2="BackgroundImageFix" result="shape"/><feColorMatrix in="SourceAlpha" result="hardAlpha" values="0 0 0 0 0 0 0 0 0 0 0 0 0 0 0 0 0 0 127 0"/><feOffset dx=".75"/><feGaussianBlur stdDeviation=".5"/><feComposite in2="hardAlpha" k2="-1" k3="1" operator="arithmetic"/><feColorMatrix values="0 0 0 0 0.203922 0 0 0 0 0.482353 0 0 0 0 0.74902 0 0 0 1 0"/><feBlend in2="shape" result="effect1_innerShadow_18_23005"/></filter><filter id="svgIDv" width="2.865" height="24.502" x="25.394" y="5.527" filterUnits="userSpaceOnUse"><feFlood flood-opacity="0" result="BackgroundImageFix"/><feBlend in="SourceGraphic" in2="BackgroundImageFix" result="shape"/><feGaussianBlur result="effect1_foregroundBlur_18_23005" stdDeviation=".5"/></filter><filter id="svgIDz" width="6.644" height="13.314" x="13.053" y="16.647" filterUnits="userSpaceOnUse"><feFlood flood-opacity="0" result="BackgroundImageFix"/><feBlend in="SourceGraphic" in2="BackgroundImageFix" result="shape"/><feColorMatrix in="SourceAlpha" result="hardAlpha" values="0 0 0 0 0 0 0 0 0 0 0 0 0 0 0 0 0 0 127 0"/><feOffset dx=".75"/><feGaussianBlur stdDeviation=".5"/><feComposite in2="hardAlpha" k2="-1" k3="1" operator="arithmetic"/><feColorMatrix values="0 0 0 0 0.67451 0 0 0 0 0.239216 0 0 0 0 0.372549 0 0 0 1 0"/><feBlend in2="shape" result="effect1_innerShadow_18_23005"/></filter><filter id="svgIDB" width="2.865" height="13.643" x="16.374" y="16.555" filterUnits="userSpaceOnUse"><feFlood flood-opacity="0" result="BackgroundImageFix"/><feBlend in="SourceGraphic" in2="BackgroundImageFix" result="shape"/><feGaussianBlur result="effect1_foregroundBlur_18_23005" stdDeviation=".5"/></filter><filter id="svgIDD" width="6.644" height="21.296" x="4.033" y="8.665" filterUnits="userSpaceOnUse"><feFlood flood-opacity="0" result="BackgroundImageFix"/><feBlend in="SourceGraphic" in2="BackgroundImageFix" result="shape"/><feColorMatrix in="SourceAlpha" result="hardAlpha" values="0 0 0 0 0 0 0 0 0 0 0 0 0 0 0 0 0 0 127 0"/><feOffset dx=".75"/><feGaussianBlur stdDeviation=".5"/><feComposite in2="hardAlpha" k2="-1" k3="1" operator="arithmetic"/><feColorMatrix values="0 0 0 0 0.415686 0 0 0 0 0.792157 0 0 0 0 0.466667 0 0 0 1 0"/><feBlend in2="shape" result="effect1_innerShadow_18_23005"/></filter><filter id="svgIDF" width="2.865" height="21.77" x="7.678" y="8.428" filterUnits="userSpaceOnUse"><feFlood flood-opacity="0" result="BackgroundImageFix"/><feBlend in="SourceGraphic" in2="BackgroundImageFix" result="shape"/><feGaussianBlur result="effect1_foregroundBlur_18_23005" stdDeviation=".5"/></filter><radialGradient id="svgIDd" cx="0" cy="0" r="1" gradientTransform="matrix(-5.58858 .20883 -.81418 -21.7886 29.953 16.403)" gradientUnits="userSpaceOnUse"><stop stop-color="#F2EDF5"/><stop offset="1" stop-color="#DED3E7" stop-opacity="0"/></radialGradient><radialGradient id="svgIDe" cx="0" cy="0" r="1" gradientTransform="matrix(-3.69009 3.2723 -3.38707 -3.81951 29.586 2.896)" gradientUnits="userSpaceOnUse"><stop stop-color="#F7F4F7"/><stop offset="1" stop-color="#E2DCE5" stop-opacity="0"/></radialGradient><radialGradient id="svgIDx" cx="0" cy="0" r="1" gradientTransform="matrix(-2.46588 0 0 -2.37936 14.324 20.93)" gradientUnits="userSpaceOnUse"><stop offset=".228" stop-color="#86738A"/><stop offset="1" stop-color="#86738A" stop-opacity="0"/></radialGradient></defs></g></svg>